0
SECTION
2
HEADER
9
$INSUNITS
70
4
0
ENDSEC
0
SECTION
2
TABLES
0
TABLE
2
LTYPE
0
LTYPE
72
65
70
64
2
CONTINUOUS
3
______
73
0
40
0
0
ENDTAB
0
TABLE
2
LAYER
0
ENDTAB
0
ENDSEC
0
SECTION
2
ENTITIES
0
LINE
8
0
10
69.8482895
20
-179.5395957
11
65.4483657
21
-163.1188567
0
LINE
8
0
10
66.8625794
20
-160.669367
11
86.1658179
21
-155.4970798
0
LINE
8
0
10
86.1963165
20
-155.4886485
11
104.1401408
21
-150.3750145
0
LINE
8
0
10
105.5843935
20
-148.2772825
11
104.3294741
21
-133.9334889
0
LINE
8
0
10
106.1475521
20
-131.7667879
11
121.8506995
21
-130.3929406
0
LINE
8
0
10
123.318687
20
-129.5419777
11
126.6243877
21
-124.7856935
0
LINE
8
0
10
127.9259843
20
-123.956353
11
132.3852821
21
-123.1854388
0
LINE
8
0
10
132.8561809
20
-123.160448
11
143.5046725
21
-123.8551203
0
LINE
8
0
10
143.7108879
20
-123.8793743
11
149.0074622
21
-124.7831671
0
LINE
8
0
10
149.1767806
20
-124.8196678
11
155.8730712
21
-126.5698035
0
LINE
8
0
10
155.9079882
20
-126.5792675
11
166.4932942
21
-129.5513792
0
LINE
8
0
10
166.7101094
20
-129.6259049
11
173.8760932
21
-132.5583337
0
LINE
8
0
10
174.1098434
20
-132.6375342
11
178.5418833
21
-133.8400508
0
LINE
8
0
10
178.8029204
20
-133.8925124
11
189.5659271
21
-135.3184525
0
LINE
8
0
10
189.5858137
20
-135.3209858
11
208.335138
21
-137.6140076
0
LINE
8
0
10
210.0774415
20
-139.8429549
11
203.6311593
21
-192.3437093
0
LINE
8
0
10
203.6254557
20
-192.7791029
11
204.3839201
21
-200.6575675
0
LINE
8
0
10
204.2474919
20
-201.5984357
11
197.3132907
21
-218.761186
0
LINE
8
0
10
194.7097098
20
-219.8663405
11
176.2494614
21
-212.407916
0
LINE
8
0
10
176.0799143
20
-212.3481293
11
160.8275338
21
-207.7292308
0
LINE
8
0
10
159.4861176
20
-205.2588002
11
163.5928421
21
-191.0763595
0
LINE
8
0
10
162.3747355
20
-188.6476984
11
158.4814183
21
-187.1859758
0
LINE
8
0
10
158.3680981
20
-187.1472598
11
141.5161434
21
-181.9477198
0
LINE
8
0
10
141.1577425
20
-181.8722354
11
133.4717959
21
-180.9775291
0
LINE
8
0
10
131.2737999
20
-182.6008954
11
131.1225031
21
-183.4201301
0
LINE
8
0
10
129.4641382
20
-185.0329941
11
113.5086995
21
-187.5229118
0
LINE
8
0
10
113.2994381
20
-187.5671431
11
94.0843678
21
-192.7158056
0
LINE
8
0
10
91.6348781
20
-191.3015919
11
88.2702306
21
-178.7445565
0
LINE
8
0
10
85.8207409
20
-177.3303428
11
72.2977792
21
-180.9538094
0
ARC
8
0
10
67.3802174
20
-162.6012187
40
2
50
104.9999979
51
194.9999979
0
ARC
8
0
10
85.6481799
20
-153.5652281
40
2
50
284.9999979
51
285.9064991
0
ARC
8
0
10
103.5920042
20
-148.4515941
40
2
50
285.9064991
51
5.0000033
0
ARC
8
0
10
106.3218635
20
-133.7591773
40
2
50
94.9999976
51
185.0000033
0
ARC
8
0
10
121.6763881
20
-128.4005512
40
2
50
274.9999976
51
325.2000235
0
ARC
8
0
10
128.2666866
20
-125.9271199
40
2
50
99.8082337
51
145.2000235
0
ARC
8
0
10
132.7259843
20
-125.1562057
40
2
50
86.2675029
51
99.8082337
0
ARC
8
0
10
143.3744759
20
-125.850878
40
2
50
80.3164719
51
86.2675029
0
ARC
8
0
10
148.6710502
20
-126.7546708
40
2
50
75.3528747
51
80.3164719
0
ARC
8
0
10
155.3673408
20
-128.5048065
40
2
50
74.3164703
51
75.3528747
0
ARC
8
0
10
165.9526468
20
-131.4769182
40
2
50
67.744882
51
74.3164703
0
ARC
8
0
10
174.6335558
20
-130.7073204
40
2
50
247.744882
51
254.8197689
0
ARC
8
0
10
179.0655957
20
-131.909837
40
2
50
254.8197689
51
262.4531004
0
ARC
8
0
10
189.8286025
20
-133.3357771
40
2
50
262.4531004
51
263.0274154
0
ARC
8
0
10
208.0923492
20
-139.5992164
40
2
50
353.0000028
51
83.0274154
0
ARC
8
0
10
205.6162516
20
-192.5874479
40
2
50
173.0000028
51
185.4989491
0
ARC
8
0
10
202.3931242
20
-200.8492225
40
2
50
338.0000006
51
5.4989491
0
ARC
8
0
10
195.458923
20
-218.0119728
40
2
50
248.0000006
51
338.0000006
0
ARC
8
0
10
175.5002483
20
-214.2622837
40
2
50
68.0000006
51
73.1520412
0
ARC
8
0
10
161.4071999
20
-205.8150764
40
2
50
163.850888
51
253.1520412
0
ARC
8
0
10
161.6717598
20
-190.5200833
40
2
50
343.850888
51
69.4216561
0
ARC
8
0
10
157.7784426
20
-189.0583607
40
2
50
69.4216561
51
72.8527937
0
ARC
8
0
10
140.9264879
20
-183.8588207
40
2
50
72.8527937
51
83.3601921
0
ARC
8
0
10
133.2405413
20
-182.9641144
40
2
50
83.3601921
51
169.536477
0
ARC
8
0
10
129.1557616
20
-183.0569111
40
2
50
278.8697232
51
349.536477
0
ARC
8
0
10
113.8170761
20
-189.4989948
40
2
50
98.8697232
51
104.9999979
0
ARC
8
0
10
93.5667298
20
-190.7839539
40
2
50
194.9999979
51
284.9999979
0
ARC
8
0
10
86.3383789
20
-179.2621945
40
2
50
14.9999979
51
104.9999979
0
ARC
8
0
10
71.7801412
20
-179.0219577
40
2
50
194.9999979
51
284.9999979
0
ENDSEC
0
EOF