0
SECTION
2
HEADER
9
$INSUNITS
70
4
0
ENDSEC
0
SECTION
2
TABLES
0
TABLE
2
LTYPE
0
LTYPE
72
65
70
64
2
CONTINUOUS
3
______
73
0
40
0
0
ENDTAB
0
TABLE
2
LAYER
0
ENDTAB
0
ENDSEC
0
SECTION
2
ENTITIES
0
LINE
8
0
10
374.8825733
20
-179.5395957
11
379.2824971
21
-163.1188567
0
LINE
8
0
10
377.8682834
20
-160.669367
11
358.5650449
21
-155.4970798
0
LINE
8
0
10
358.5345463
20
-155.4886485
11
340.590722
21
-150.3750145
0
LINE
8
0
10
339.1464693
20
-148.2772825
11
340.4013887
21
-133.9334889
0
LINE
8
0
10
322.8801633
20
-130.3929406
11
338.5833107
21
-131.7667879
0
LINE
8
0
10
321.4121758
20
-129.5419777
11
318.1064751
21
-124.7856935
0
LINE
8
0
10
316.8048785
20
-123.956353
11
312.3455807
21
-123.1854388
0
LINE
8
0
10
311.8746819
20
-123.160448
11
301.2261903
21
-123.8551203
0
LINE
8
0
10
301.0199749
20
-123.8793743
11
295.7234006
21
-124.7831671
0
LINE
8
0
10
295.5540822
20
-124.8196678
11
288.8577916
21
-126.5698035
0
LINE
8
0
10
288.8228746
20
-126.5792675
11
278.2375686
21
-129.5513792
0
LINE
8
0
10
278.0207534
20
-129.6259049
11
270.8547696
21
-132.5583337
0
LINE
8
0
10
270.6210194
20
-132.6375342
11
266.1889795
21
-133.8400508
0
LINE
8
0
10
265.9279424
20
-133.8925124
11
255.1649357
21
-135.3184525
0
LINE
8
0
10
255.1450491
20
-135.3209858
11
236.3957248
21
-137.6140076
0
LINE
8
0
10
234.6534213
20
-139.8429549
11
241.0997035
21
-192.3437093
0
LINE
8
0
10
241.1054071
20
-192.7791029
11
240.3469427
21
-200.6575675
0
LINE
8
0
10
240.4833709
20
-201.5984357
11
247.4175721
21
-218.761186
0
LINE
8
0
10
250.021153
20
-219.8663405
11
268.4814014
21
-212.407916
0
LINE
8
0
10
268.6509485
20
-212.3481293
11
283.903329
21
-207.7292308
0
LINE
8
0
10
285.2447452
20
-205.2588002
11
281.1380207
21
-191.0763595
0
LINE
8
0
10
282.3561273
20
-188.6476984
11
286.2494445
21
-187.1859758
0
LINE
8
0
10
286.3627647
20
-187.1472598
11
303.2147194
21
-181.9477198
0
LINE
8
0
10
303.5731203
20
-181.8722354
11
311.2590669
21
-180.9775291
0
LINE
8
0
10
313.4570629
20
-182.6008954
11
313.6083597
21
-183.4201301
0
LINE
8
0
10
315.2667246
20
-185.0329941
11
331.2221633
21
-187.5229118
0
LINE
8
0
10
331.4314247
20
-187.5671431
11
350.646495
21
-192.7158056
0
LINE
8
0
10
353.0959847
20
-191.3015919
11
356.4606322
21
-178.7445565
0
LINE
8
0
10
358.9101219
20
-177.3303428
11
372.4330836
21
-180.9538094
0
ARC
8
0
10
377.3506454
20
-162.6012187
40
2
50
345.0000021
51
75.0000021
0
ARC
8
0
10
359.0826829
20
-153.5652281
40
2
50
254.0935009
51
255.0000021
0
ARC
8
0
10
341.1388586
20
-148.4515941
40
2
50
174.9999967
51
254.0935009
0
ARC
8
0
10
338.4089993
20
-133.7591773
40
2
50
354.9999967
51
85.0000024
0
ARC
8
0
10
323.0544747
20
-128.4005512
40
2
50
214.7999765
51
265.0000024
0
ARC
8
0
10
316.4641762
20
-125.9271199
40
2
50
34.7999765
51
80.1917663
0
ARC
8
0
10
312.0048785
20
-125.1562057
40
2
50
80.1917663
51
93.7324971
0
ARC
8
0
10
301.3563869
20
-125.850878
40
2
50
93.7324971
51
99.6835281
0
ARC
8
0
10
296.0598126
20
-126.7546708
40
2
50
99.6835281
51
104.6471253
0
ARC
8
0
10
289.363522
20
-128.5048065
40
2
50
104.6471253
51
105.6835297
0
ARC
8
0
10
278.778216
20
-131.4769182
40
2
50
105.6835297
51
112.255118
0
ARC
8
0
10
270.097307
20
-130.7073204
40
2
50
285.1802311
51
292.255118
0
ARC
8
0
10
265.6652671
20
-131.909837
40
2
50
277.5468996
51
285.1802311
0
ARC
8
0
10
254.9022603
20
-133.3357771
40
2
50
276.9725846
51
277.5468996
0
ARC
8
0
10
236.6385136
20
-139.5992164
40
2
50
96.9725846
51
186.9999972
0
ARC
8
0
10
239.1146112
20
-192.5874479
40
2
50
354.5010509
51
6.9999972
0
ARC
8
0
10
242.3377386
20
-200.8492225
40
2
50
174.5010509
51
201.9999994
0
ARC
8
0
10
249.2719398
20
-218.0119728
40
2
50
201.9999994
51
291.9999994
0
ARC
8
0
10
269.2306145
20
-214.2622837
40
2
50
106.8479588
51
111.9999994
0
ARC
8
0
10
283.3236629
20
-205.8150764
40
2
50
286.8479588
51
16.149112
0
ARC
8
0
10
283.059103
20
-190.5200833
40
2
50
110.5783439
51
196.149112
0
ARC
8
0
10
286.9524202
20
-189.0583607
40
2
50
107.1472063
51
110.5783439
0
ARC
8
0
10
303.8043749
20
-183.8588207
40
2
50
96.6398079
51
107.1472063
0
ARC
8
0
10
311.4903215
20
-182.9641144
40
2
50
10.463523
51
96.6398079
0
ARC
8
0
10
315.5751012
20
-183.0569111
40
2
50
190.463523
51
261.1302768
0
ARC
8
0
10
330.9137867
20
-189.4989948
40
2
50
75.0000021
51
81.1302768
0
ARC
8
0
10
351.164133
20
-190.7839539
40
2
50
255.0000021
51
345.0000021
0
ARC
8
0
10
358.3924839
20
-179.2621945
40
2
50
75.0000021
51
165.0000021
0
ARC
8
0
10
372.9507216
20
-179.0219577
40
2
50
255.0000021
51
345.0000021
0
ENDSEC
0
EOF