0
SECTION
2
HEADER
9
$INSUNITS
70
4
0
ENDSEC
0
SECTION
2
TABLES
0
TABLE
2
LTYPE
0
LTYPE
72
65
70
64
2
CONTINUOUS
3
______
73
0
40
0
0
ENDTAB
0
TABLE
2
LAYER
0
ENDTAB
0
ENDSEC
0
SECTION
2
ENTITIES
0
LINE
8
0
10
69.8482895
20
-179.5395957
11
65.4483657
21
-163.1188567
0
LINE
8
0
10
66.8625794
20
-160.669367
11
86.1658179
21
-155.4970798
0
LINE
8
0
10
86.1963165
20
-155.4886485
11
104.1401408
21
-150.3750145
0
LINE
8
0
10
105.5843935
20
-148.2772825
11
104.3294741
21
-133.9334889
0
LINE
8
0
10
106.1475521
20
-131.7667879
11
121.8506995
21
-130.3929406
0
LINE
8
0
10
123.318687
20
-129.5419777
11
126.6243877
21
-124.7856935
0
LINE
8
0
10
127.9259843
20
-123.956353
11
132.3852821
21
-123.1854388
0
LINE
8
0
10
132.8561809
20
-123.160448
11
143.5046725
21
-123.8551203
0
LINE
8
0
10
143.7108879
20
-123.8793743
11
149.0074622
21
-124.7831671
0
LINE
8
0
10
149.1767806
20
-124.8196678
11
155.8730712
21
-126.5698035
0
LINE
8
0
10
155.9079882
20
-126.5792675
11
166.4932942
21
-129.5513792
0
LINE
8
0
10
166.7101094
20
-129.6259049
11
173.8760932
21
-132.5583337
0
LINE
8
0
10
174.1098434
20
-132.6375342
11
178.5418833
21
-133.8400508
0
LINE
8
0
10
178.8029204
20
-133.8925124
11
189.5659271
21
-135.3184525
0
LINE
8
0
10
189.5858137
20
-135.3209858
11
208.335138
21
-137.6140076
0
LINE
8
0
10
210.0774415
20
-139.8429549
11
203.6311593
21
-192.3437093
0
LINE
8
0
10
203.6254557
20
-192.7791029
11
204.3839201
21
-200.6575675
0
LINE
8
0
10
204.2474919
20
-201.5984357
11
197.3132907
21
-218.761186
0
LINE
8
0
10
194.7097098
20
-219.8663405
11
176.2494614
21
-212.407916
0
LINE
8
0
10
176.0799143
20
-212.3481293
11
160.8275338
21
-207.7292308
0
LINE
8
0
10
159.4861176
20
-205.2588002
11
163.5928421
21
-191.0763595
0
LINE
8
0
10
162.3747355
20
-188.6476984
11
158.4814183
21
-187.1859758
0
LINE
8
0
10
158.3680981
20
-187.1472598
11
141.5161434
21
-181.9477198
0
LINE
8
0
10
141.1577425
20
-181.8722354
11
133.4717959
21
-180.9775291
0
LINE
8
0
10
131.2737999
20
-182.6008954
11
131.1225031
21
-183.4201301
0
LINE
8
0
10
129.4641382
20
-185.0329941
11
113.5086995
21
-187.5229118
0
LINE
8
0
10
113.2994381
20
-187.5671431
11
94.0843678
21
-192.7158056
0
LINE
8
0
10
91.6348781
20
-191.3015919
11
88.2702306
21
-178.7445565
0
LINE
8
0
10
85.8207409
20
-177.3303428
11
72.2977792
21
-180.9538094
0
ARC
8
0
10
67.3802174
20
-162.6012187
40
2
50
104.9999979
51
194.9999979
0
ARC
8
0
10
85.6481799
20
-153.5652281
40
2
50
284.9999979
51
285.9064991
0
ARC
8
0
10
103.5920042
20
-148.4515941
40
2
50
285.9064991
51
5.0000033
0
ARC
8
0
10
106.3218635
20
-133.7591773
40
2
50
94.9999976
51
185.0000033
0
ARC
8
0
10
121.6763881
20
-128.4005512
40
2
50
274.9999976
51
325.2000235
0
ARC
8
0
10
128.2666866
20
-125.9271199
40
2
50
99.8082337
51
145.2000235
0
ARC
8
0
10
132.7259843
20
-125.1562057
40
2
50
86.2675029
51
99.8082337
0
ARC
8
0
10
143.3744759
20
-125.850878
40
2
50
80.3164719
51
86.2675029
0
ARC
8
0
10
148.6710502
20
-126.7546708
40
2
50
75.3528747
51
80.3164719
0
ARC
8
0
10
155.3673408
20
-128.5048065
40
2
50
74.3164703
51
75.3528747
0
ARC
8
0
10
165.9526468
20
-131.4769182
40
2
50
67.744882
51
74.3164703
0
ARC
8
0
10
174.6335558
20
-130.7073204
40
2
50
247.744882
51
254.8197689
0
ARC
8
0
10
179.0655957
20
-131.909837
40
2
50
254.8197689
51
262.4531004
0
ARC
8
0
10
189.8286025
20
-133.3357771
40
2
50
262.4531004
51
263.0274154
0
ARC
8
0
10
208.0923492
20
-139.5992164
40
2
50
353.0000028
51
83.0274154
0
ARC
8
0
10
205.6162516
20
-192.5874479
40
2
50
173.0000028
51
185.4989491
0
ARC
8
0
10
202.3931242
20
-200.8492225
40
2
50
338.0000006
51
5.4989491
0
ARC
8
0
10
195.458923
20
-218.0119728
40
2
50
248.0000006
51
338.0000006
0
ARC
8
0
10
175.5002483
20
-214.2622837
40
2
50
68.0000006
51
73.1520412
0
ARC
8
0
10
161.4071999
20
-205.8150764
40
2
50
163.850888
51
253.1520412
0
ARC
8
0
10
161.6717598
20
-190.5200833
40
2
50
343.850888
51
69.4216561
0
ARC
8
0
10
157.7784426
20
-189.0583607
40
2
50
69.4216561
51
72.8527937
0
ARC
8
0
10
140.9264879
20
-183.8588207
40
2
50
72.8527937
51
83.3601921
0
ARC
8
0
10
133.2405413
20
-182.9641144
40
2
50
83.3601921
51
169.536477
0
ARC
8
0
10
129.1557616
20
-183.0569111
40
2
50
278.8697232
51
349.536477
0
ARC
8
0
10
113.8170761
20
-189.4989948
40
2
50
98.8697232
51
104.9999979
0
ARC
8
0
10
93.5667298
20
-190.7839539
40
2
50
194.9999979
51
284.9999979
0
ARC
8
0
10
86.3383789
20
-179.2621945
40
2
50
14.9999979
51
104.9999979
0
ARC
8
0
10
71.7801412
20
-179.0219577
40
2
50
194.9999979
51
284.9999979
0
LINE
8
0
10
93.7435064
20
-190.4777677
11
110.6472084
21
-185.9484344
0
LINE
8
0
10
110.6472084
20
-185.9484344
11
106.3766942
21
-170.0106583
0
LINE
8
0
10
106.3766942
20
-170.0106583
11
89.4729922
21
-174.5399916
0
LINE
8
0
10
89.4729922
20
-174.5399916
11
93.7435064
21
-190.4777677
0
LINE
8
0
10
89.3435827
20
-174.0570287
11
106.2472847
21
-169.5276954
0
LINE
8
0
10
106.2472847
20
-169.5276954
11
101.9767705
21
-153.5899193
0
LINE
8
0
10
101.9767705
20
-153.5899193
11
85.0730685
21
-158.1192526
0
LINE
8
0
10
85.0730685
20
-158.1192526
11
89.3435827
21
-174.0570287
0
LINE
8
0
10
71.9569178
20
-178.7157715
11
88.8606198
21
-174.1864382
0
LINE
8
0
10
88.8606198
20
-174.1864382
11
84.5901056
21
-158.2486621
0
LINE
8
0
10
84.5901056
20
-158.2486621
11
67.6864036
21
-162.7779954
0
LINE
8
0
10
67.6864036
20
-162.7779954
11
71.9569178
21
-178.7157715
0
LINE
8
0
10
110.9940662
20
-184.2942693
11
128.4274734
21
-182.7690438
0
LINE
8
0
10
128.4274734
20
-182.7690438
11
126.9894036
21
-166.3318313
0
LINE
8
0
10
126.9894036
20
-166.3318313
11
109.5559964
21
-167.8570568
0
LINE
8
0
10
109.5559964
20
-167.8570568
11
110.9940662
21
-184.2942693
0
LINE
8
0
10
109.5124186
20
-167.3589595
11
126.9458258
21
-165.833734
0
LINE
8
0
10
126.9458258
20
-165.833734
11
125.507756
21
-149.3965215
0
LINE
8
0
10
125.507756
20
-149.3965215
11
108.0743488
21
-150.921747
0
LINE
8
0
10
108.0743488
20
-150.921747
11
109.5124186
21
-167.3589595
0
LINE
8
0
10
108.0307709
20
-150.4236496
11
125.4641781
21
-148.8984241
0
LINE
8
0
10
125.4641781
20
-148.8984241
11
124.0261083
21
-132.4612116
0
LINE
8
0
10
124.0261083
20
-132.4612116
11
106.5927011
21
-133.9864371
0
LINE
8
0
10
106.5927011
20
-133.9864371
11
108.0307709
21
-150.4236496
0
LINE
8
0
10
128.4491287
20
-175.8302367
11
145.9464634
21
-176.1356538
0
LINE
8
0
10
145.9464634
20
-176.1356538
11
146.2344281
21
-159.6381669
0
LINE
8
0
10
146.2344281
20
-159.6381669
11
128.7370934
21
-159.3327498
0
LINE
8
0
10
128.7370934
20
-159.3327498
11
128.4491287
21
-175.8302367
0
LINE
8
0
10
128.7458195
20
-158.8328259
11
146.2431542
21
-159.138243
0
LINE
8
0
10
146.2431542
20
-159.138243
11
146.5311189
21
-142.6407561
0
LINE
8
0
10
146.5311189
20
-142.6407561
11
129.0337842
21
-142.335339
0
LINE
8
0
10
129.0337842
20
-142.335339
11
128.7458195
21
-158.8328259
0
LINE
8
0
10
129.0425104
20
-141.8354152
11
146.5398451
21
-142.1408323
0
LINE
8
0
10
146.5398451
20
-142.1408323
11
146.8278098
21
-125.6433454
0
LINE
8
0
10
146.8278098
20
-125.6433454
11
129.3304751
21
-125.3379283
0
LINE
8
0
10
129.3304751
20
-125.3379283
11
129.0425104
21
-141.8354152
0
LINE
8
0
10
146.0314502
20
-180.2025895
11
163.4010078
21
-182.335303
0
LINE
8
0
10
163.4010078
20
-182.335303
11
165.411852
21
-165.9582915
0
LINE
8
0
10
165.411852
20
-165.9582915
11
148.0422944
21
-163.825578
0
LINE
8
0
10
148.0422944
20
-163.825578
11
146.0314502
21
-180.2025895
0
LINE
8
0
10
148.1032291
20
-163.329305
11
165.4727867
21
-165.4620185
0
LINE
8
0
10
165.4727867
20
-165.4620185
11
167.4836309
21
-149.085007
0
LINE
8
0
10
167.4836309
20
-149.085007
11
150.1140733
21
-146.9522935
0
LINE
8
0
10
150.1140733
20
-146.9522935
11
148.1032291
21
-163.329305
0
LINE
8
0
10
150.175008
20
-146.4560204
11
167.5445656
21
-148.5887339
0
LINE
8
0
10
167.5445656
20
-148.5887339
11
169.5554098
21
-132.2117224
0
LINE
8
0
10
169.5554098
20
-132.2117224
11
152.1858522
21
-130.0790089
0
LINE
8
0
10
152.1858522
20
-130.0790089
11
150.175008
21
-146.4560204
0
LINE
8
0
10
163.5316728
20
-185.3738762
11
180.9012304
21
-187.5065897
0
LINE
8
0
10
180.9012304
20
-187.5065897
11
182.9120746
21
-171.1295782
0
LINE
8
0
10
182.9120746
20
-171.1295782
11
165.542517
21
-168.9968647
0
LINE
8
0
10
165.542517
20
-168.9968647
11
163.5316728
21
-185.3738762
0
LINE
8
0
10
165.6034517
20
-168.5005916
11
182.9730093
21
-170.6333051
0
LINE
8
0
10
182.9730093
20
-170.6333051
11
184.9838535
21
-154.2562936
0
LINE
8
0
10
184.9838535
20
-154.2562936
11
167.6142959
21
-152.1235801
0
LINE
8
0
10
167.6142959
20
-152.1235801
11
165.6034517
21
-168.5005916
0
LINE
8
0
10
167.6752305
20
-151.6273071
11
185.0447881
21
-153.7600206
0
LINE
8
0
10
185.0447881
20
-153.7600206
11
187.0556323
21
-137.3830091
0
LINE
8
0
10
187.0556323
20
-137.3830091
11
169.6860747
21
-135.2502956
0
LINE
8
0
10
169.6860747
20
-135.2502956
11
167.6752305
21
-151.6273071
0
LINE
8
0
10
161.7461073
20
-205.662743
11
178.4814406
21
-210.7792479
0
LINE
8
0
10
178.4814406
20
-210.7792479
11
183.3055737
21
-195.0002194
0
LINE
8
0
10
183.3055737
20
-195.0002194
11
166.5702404
21
-189.8837145
0
LINE
8
0
10
166.5702404
20
-189.8837145
11
161.7461073
21
-205.662743
0
LINE
8
0
10
179.0950612
20
-211.1309098
11
195.3207786
21
-217.6865252
0
LINE
8
0
10
195.3207786
20
-217.6865252
11
201.5017874
21
-202.3879916
0
LINE
8
0
10
201.5017874
20
-202.3879916
11
185.27607
21
-195.8323762
0
LINE
8
0
10
185.27607
20
-195.8323762
11
179.0950612
21
-211.1309098
0
ENDSEC
0
EOF