0
SECTION
2
HEADER
9
$INSUNITS
70
4
0
ENDSEC
0
SECTION
2
TABLES
0
TABLE
2
LTYPE
0
LTYPE
72
65
70
64
2
CONTINUOUS
3
______
73
0
40
0
0
ENDTAB
0
TABLE
2
LAYER
0
ENDTAB
0
ENDSEC
0
SECTION
2
ENTITIES
0
LINE
8
0
10
374.8825733
20
-179.5395957
11
379.2824971
21
-163.1188567
0
LINE
8
0
10
377.8682834
20
-160.669367
11
358.5650449
21
-155.4970798
0
LINE
8
0
10
358.5345463
20
-155.4886485
11
340.590722
21
-150.3750145
0
LINE
8
0
10
339.1464693
20
-148.2772825
11
340.4013887
21
-133.9334889
0
LINE
8
0
10
322.8801633
20
-130.3929406
11
338.5833107
21
-131.7667879
0
LINE
8
0
10
321.4121758
20
-129.5419777
11
318.1064751
21
-124.7856935
0
LINE
8
0
10
316.8048785
20
-123.956353
11
312.3455807
21
-123.1854388
0
LINE
8
0
10
311.8746819
20
-123.160448
11
301.2261903
21
-123.8551203
0
LINE
8
0
10
301.0199749
20
-123.8793743
11
295.7234006
21
-124.7831671
0
LINE
8
0
10
295.5540822
20
-124.8196678
11
288.8577916
21
-126.5698035
0
LINE
8
0
10
288.8228746
20
-126.5792675
11
278.2375686
21
-129.5513792
0
LINE
8
0
10
278.0207534
20
-129.6259049
11
270.8547696
21
-132.5583337
0
LINE
8
0
10
270.6210194
20
-132.6375342
11
266.1889795
21
-133.8400508
0
LINE
8
0
10
265.9279424
20
-133.8925124
11
255.1649357
21
-135.3184525
0
LINE
8
0
10
255.1450491
20
-135.3209858
11
236.3957248
21
-137.6140076
0
LINE
8
0
10
234.6534213
20
-139.8429549
11
241.0997035
21
-192.3437093
0
LINE
8
0
10
241.1054071
20
-192.7791029
11
240.3469427
21
-200.6575675
0
LINE
8
0
10
240.4833709
20
-201.5984357
11
247.4175721
21
-218.761186
0
LINE
8
0
10
250.021153
20
-219.8663405
11
268.4814014
21
-212.407916
0
LINE
8
0
10
268.6509485
20
-212.3481293
11
283.903329
21
-207.7292308
0
LINE
8
0
10
285.2447452
20
-205.2588002
11
281.1380207
21
-191.0763595
0
LINE
8
0
10
282.3561273
20
-188.6476984
11
286.2494445
21
-187.1859758
0
LINE
8
0
10
286.3627647
20
-187.1472598
11
303.2147194
21
-181.9477198
0
LINE
8
0
10
303.5731203
20
-181.8722354
11
311.2590669
21
-180.9775291
0
LINE
8
0
10
313.4570629
20
-182.6008954
11
313.6083597
21
-183.4201301
0
LINE
8
0
10
315.2667246
20
-185.0329941
11
331.2221633
21
-187.5229118
0
LINE
8
0
10
331.4314247
20
-187.5671431
11
350.646495
21
-192.7158056
0
LINE
8
0
10
353.0959847
20
-191.3015919
11
356.4606322
21
-178.7445565
0
LINE
8
0
10
358.9101219
20
-177.3303428
11
372.4330836
21
-180.9538094
0
ARC
8
0
10
377.3506454
20
-162.6012187
40
2
50
345.0000021
51
75.0000021
0
ARC
8
0
10
359.0826829
20
-153.5652281
40
2
50
254.0935009
51
255.0000021
0
ARC
8
0
10
341.1388586
20
-148.4515941
40
2
50
174.9999967
51
254.0935009
0
ARC
8
0
10
338.4089993
20
-133.7591773
40
2
50
354.9999967
51
85.0000024
0
ARC
8
0
10
323.0544747
20
-128.4005512
40
2
50
214.7999765
51
265.0000024
0
ARC
8
0
10
316.4641762
20
-125.9271199
40
2
50
34.7999765
51
80.1917663
0
ARC
8
0
10
312.0048785
20
-125.1562057
40
2
50
80.1917663
51
93.7324971
0
ARC
8
0
10
301.3563869
20
-125.850878
40
2
50
93.7324971
51
99.6835281
0
ARC
8
0
10
296.0598126
20
-126.7546708
40
2
50
99.6835281
51
104.6471253
0
ARC
8
0
10
289.363522
20
-128.5048065
40
2
50
104.6471253
51
105.6835297
0
ARC
8
0
10
278.778216
20
-131.4769182
40
2
50
105.6835297
51
112.255118
0
ARC
8
0
10
270.097307
20
-130.7073204
40
2
50
285.1802311
51
292.255118
0
ARC
8
0
10
265.6652671
20
-131.909837
40
2
50
277.5468996
51
285.1802311
0
ARC
8
0
10
254.9022603
20
-133.3357771
40
2
50
276.9725846
51
277.5468996
0
ARC
8
0
10
236.6385136
20
-139.5992164
40
2
50
96.9725846
51
186.9999972
0
ARC
8
0
10
239.1146112
20
-192.5874479
40
2
50
354.5010509
51
6.9999972
0
ARC
8
0
10
242.3377386
20
-200.8492225
40
2
50
174.5010509
51
201.9999994
0
ARC
8
0
10
249.2719398
20
-218.0119728
40
2
50
201.9999994
51
291.9999994
0
ARC
8
0
10
269.2306145
20
-214.2622837
40
2
50
106.8479588
51
111.9999994
0
ARC
8
0
10
283.3236629
20
-205.8150764
40
2
50
286.8479588
51
16.149112
0
ARC
8
0
10
283.059103
20
-190.5200833
40
2
50
110.5783439
51
196.149112
0
ARC
8
0
10
286.9524202
20
-189.0583607
40
2
50
107.1472063
51
110.5783439
0
ARC
8
0
10
303.8043749
20
-183.8588207
40
2
50
96.6398079
51
107.1472063
0
ARC
8
0
10
311.4903215
20
-182.9641144
40
2
50
10.463523
51
96.6398079
0
ARC
8
0
10
315.5751012
20
-183.0569111
40
2
50
190.463523
51
261.1302768
0
ARC
8
0
10
330.9137867
20
-189.4989948
40
2
50
75.0000021
51
81.1302768
0
ARC
8
0
10
351.164133
20
-190.7839539
40
2
50
255.0000021
51
345.0000021
0
ARC
8
0
10
358.3924839
20
-179.2621945
40
2
50
75.0000021
51
165.0000021
0
ARC
8
0
10
372.9507216
20
-179.0219577
40
2
50
255.0000021
51
345.0000021
0
LINE
8
0
10
334.0836544
20
-185.9484344
11
350.9873564
21
-190.4777677
0
LINE
8
0
10
350.9873564
20
-190.4777677
11
355.2578706
21
-174.5399916
0
LINE
8
0
10
355.2578706
20
-174.5399916
11
338.3541686
21
-170.0106583
0
LINE
8
0
10
338.3541686
20
-170.0106583
11
334.0836544
21
-185.9484344
0
LINE
8
0
10
338.4835781
20
-169.5276954
11
355.3872801
21
-174.0570287
0
LINE
8
0
10
355.3872801
20
-174.0570287
11
359.6577943
21
-158.1192526
0
LINE
8
0
10
359.6577943
20
-158.1192526
11
342.7540923
21
-153.5899193
0
LINE
8
0
10
342.7540923
20
-153.5899193
11
338.4835781
21
-169.5276954
0
LINE
8
0
10
355.870243
20
-174.1864382
11
372.773945
21
-178.7157715
0
LINE
8
0
10
372.773945
20
-178.7157715
11
377.0444592
21
-162.7779954
0
LINE
8
0
10
377.0444592
20
-162.7779954
11
360.1407572
21
-158.2486621
0
LINE
8
0
10
360.1407572
20
-158.2486621
11
355.870243
21
-174.1864382
0
LINE
8
0
10
316.3033894
20
-182.7690438
11
333.7367966
21
-184.2942693
0
LINE
8
0
10
333.7367966
20
-184.2942693
11
335.1748664
21
-167.8570568
0
LINE
8
0
10
335.1748664
20
-167.8570568
11
317.7414592
21
-166.3318313
0
LINE
8
0
10
317.7414592
20
-166.3318313
11
316.3033894
21
-182.7690438
0
LINE
8
0
10
317.785037
20
-165.833734
11
335.2184442
21
-167.3589595
0
LINE
8
0
10
335.2184442
20
-167.3589595
11
336.656514
21
-150.921747
0
LINE
8
0
10
336.656514
20
-150.921747
11
319.2231068
21
-149.3965215
0
LINE
8
0
10
319.2231068
20
-149.3965215
11
317.785037
21
-165.833734
0
LINE
8
0
10
319.2666847
20
-148.8984241
11
336.7000919
21
-150.4236496
0
LINE
8
0
10
336.7000919
20
-150.4236496
11
338.1381617
21
-133.9864371
0
LINE
8
0
10
338.1381617
20
-133.9864371
11
320.7047545
21
-132.4612116
0
LINE
8
0
10
320.7047545
20
-132.4612116
11
319.2666847
21
-148.8984241
0
LINE
8
0
10
298.7843994
20
-176.1356538
11
316.2817341
21
-175.8302367
0
LINE
8
0
10
316.2817341
20
-175.8302367
11
315.9937694
21
-159.3327498
0
LINE
8
0
10
315.9937694
20
-159.3327498
11
298.4964347
21
-159.6381669
0
LINE
8
0
10
298.4964347
20
-159.6381669
11
298.7843994
21
-176.1356538
0
LINE
8
0
10
298.4877086
20
-159.138243
11
315.9850433
21
-158.8328259
0
LINE
8
0
10
315.9850433
20
-158.8328259
11
315.6970786
21
-142.335339
0
LINE
8
0
10
315.6970786
20
-142.335339
11
298.1997439
21
-142.6407561
0
LINE
8
0
10
298.1997439
20
-142.6407561
11
298.4877086
21
-159.138243
0
LINE
8
0
10
298.1910177
20
-142.1408323
11
315.6883524
21
-141.8354152
0
LINE
8
0
10
315.6883524
20
-141.8354152
11
315.4003877
21
-125.3379283
0
LINE
8
0
10
315.4003877
20
-125.3379283
11
297.903053
21
-125.6433454
0
LINE
8
0
10
297.903053
20
-125.6433454
11
298.1910177
21
-142.1408323
0
LINE
8
0
10
281.329855
20
-182.335303
11
298.6994126
21
-180.2025895
0
LINE
8
0
10
298.6994126
20
-180.2025895
11
296.6885684
21
-163.825578
0
LINE
8
0
10
296.6885684
20
-163.825578
11
279.3190108
21
-165.9582915
0
LINE
8
0
10
279.3190108
20
-165.9582915
11
281.329855
21
-182.335303
0
LINE
8
0
10
279.2580761
20
-165.4620185
11
296.6276337
21
-163.329305
0
LINE
8
0
10
296.6276337
20
-163.329305
11
294.6167895
21
-146.9522935
0
LINE
8
0
10
294.6167895
20
-146.9522935
11
277.2472319
21
-149.085007
0
LINE
8
0
10
277.2472319
20
-149.085007
11
279.2580761
21
-165.4620185
0
LINE
8
0
10
277.1862972
20
-148.5887339
11
294.5558548
21
-146.4560204
0
LINE
8
0
10
294.5558548
20
-146.4560204
11
292.5450106
21
-130.0790089
0
LINE
8
0
10
292.5450106
20
-130.0790089
11
275.175453
21
-132.2117224
0
LINE
8
0
10
275.175453
20
-132.2117224
11
277.1862972
21
-148.5887339
0
LINE
8
0
10
263.8296324
20
-187.5065897
11
281.19919
21
-185.3738762
0
LINE
8
0
10
281.19919
20
-185.3738762
11
279.1883458
21
-168.9968647
0
LINE
8
0
10
279.1883458
20
-168.9968647
11
261.8187882
21
-171.1295782
0
LINE
8
0
10
261.8187882
20
-171.1295782
11
263.8296324
21
-187.5065897
0
LINE
8
0
10
261.7578535
20
-170.6333051
11
279.1274111
21
-168.5005916
0
LINE
8
0
10
279.1274111
20
-168.5005916
11
277.1165669
21
-152.1235801
0
LINE
8
0
10
277.1165669
20
-152.1235801
11
259.7470093
21
-154.2562936
0
LINE
8
0
10
259.7470093
20
-154.2562936
11
261.7578535
21
-170.6333051
0
LINE
8
0
10
259.6860747
20
-153.7600206
11
277.0556323
21
-151.6273071
0
LINE
8
0
10
277.0556323
20
-151.6273071
11
275.0447881
21
-135.2502956
0
LINE
8
0
10
275.0447881
20
-135.2502956
11
257.6752305
21
-137.3830091
0
LINE
8
0
10
257.6752305
20
-137.3830091
11
259.6860747
21
-153.7600206
0
LINE
8
0
10
266.2494222
20
-210.7792479
11
282.9847555
21
-205.662743
0
LINE
8
0
10
282.9847555
20
-205.662743
11
278.1606224
21
-189.8837145
0
LINE
8
0
10
278.1606224
20
-189.8837145
11
261.4252891
21
-195.0002194
0
LINE
8
0
10
261.4252891
20
-195.0002194
11
266.2494222
21
-210.7792479
0
LINE
8
0
10
249.4100842
20
-217.6865252
11
265.6358016
21
-211.1309098
0
LINE
8
0
10
265.6358016
20
-211.1309098
11
259.4547928
21
-195.8323762
0
LINE
8
0
10
259.4547928
20
-195.8323762
11
243.2290754
21
-202.3879916
0
LINE
8
0
10
243.2290754
20
-202.3879916
11
249.4100842
21
-217.6865252
0
ENDSEC
0
EOF