0
SECTION
2
HEADER
9
$INSUNITS
70
4
0
ENDSEC
0
SECTION
2
TABLES
0
TABLE
2
LTYPE
0
LTYPE
72
65
70
64
2
CONTINUOUS
3
______
73
0
40
0
0
ENDTAB
0
TABLE
2
LAYER
0
ENDTAB
0
ENDSEC
0
SECTION
2
ENTITIES
0
LINE
8
0
10
93.7435064
20
-190.4777677
11
110.6472084
21
-185.9484344
0
LINE
8
0
10
110.6472084
20
-185.9484344
11
106.3766942
21
-170.0106583
0
LINE
8
0
10
106.3766942
20
-170.0106583
11
89.4729922
21
-174.5399916
0
LINE
8
0
10
89.4729922
20
-174.5399916
11
93.7435064
21
-190.4777677
0
LINE
8
0
10
89.3435827
20
-174.0570287
11
106.2472847
21
-169.5276954
0
LINE
8
0
10
106.2472847
20
-169.5276954
11
101.9767705
21
-153.5899193
0
LINE
8
0
10
101.9767705
20
-153.5899193
11
85.0730685
21
-158.1192526
0
LINE
8
0
10
85.0730685
20
-158.1192526
11
89.3435827
21
-174.0570287
0
LINE
8
0
10
71.9569178
20
-178.7157715
11
88.8606198
21
-174.1864382
0
LINE
8
0
10
88.8606198
20
-174.1864382
11
84.5901056
21
-158.2486621
0
LINE
8
0
10
84.5901056
20
-158.2486621
11
67.6864036
21
-162.7779954
0
LINE
8
0
10
67.6864036
20
-162.7779954
11
71.9569178
21
-178.7157715
0
LINE
8
0
10
110.9940662
20
-184.2942693
11
128.4274734
21
-182.7690438
0
LINE
8
0
10
128.4274734
20
-182.7690438
11
126.9894036
21
-166.3318313
0
LINE
8
0
10
126.9894036
20
-166.3318313
11
109.5559964
21
-167.8570568
0
LINE
8
0
10
109.5559964
20
-167.8570568
11
110.9940662
21
-184.2942693
0
LINE
8
0
10
109.5124186
20
-167.3589595
11
126.9458258
21
-165.833734
0
LINE
8
0
10
126.9458258
20
-165.833734
11
125.507756
21
-149.3965215
0
LINE
8
0
10
125.507756
20
-149.3965215
11
108.0743488
21
-150.921747
0
LINE
8
0
10
108.0743488
20
-150.921747
11
109.5124186
21
-167.3589595
0
LINE
8
0
10
108.0307709
20
-150.4236496
11
125.4641781
21
-148.8984241
0
LINE
8
0
10
125.4641781
20
-148.8984241
11
124.0261083
21
-132.4612116
0
LINE
8
0
10
124.0261083
20
-132.4612116
11
106.5927011
21
-133.9864371
0
LINE
8
0
10
106.5927011
20
-133.9864371
11
108.0307709
21
-150.4236496
0
LINE
8
0
10
128.4491287
20
-175.8302367
11
145.9464634
21
-176.1356538
0
LINE
8
0
10
145.9464634
20
-176.1356538
11
146.2344281
21
-159.6381669
0
LINE
8
0
10
146.2344281
20
-159.6381669
11
128.7370934
21
-159.3327498
0
LINE
8
0
10
128.7370934
20
-159.3327498
11
128.4491287
21
-175.8302367
0
LINE
8
0
10
128.7458195
20
-158.8328259
11
146.2431542
21
-159.138243
0
LINE
8
0
10
146.2431542
20
-159.138243
11
146.5311189
21
-142.6407561
0
LINE
8
0
10
146.5311189
20
-142.6407561
11
129.0337842
21
-142.335339
0
LINE
8
0
10
129.0337842
20
-142.335339
11
128.7458195
21
-158.8328259
0
LINE
8
0
10
129.0425104
20
-141.8354152
11
146.5398451
21
-142.1408323
0
LINE
8
0
10
146.5398451
20
-142.1408323
11
146.8278098
21
-125.6433454
0
LINE
8
0
10
146.8278098
20
-125.6433454
11
129.3304751
21
-125.3379283
0
LINE
8
0
10
129.3304751
20
-125.3379283
11
129.0425104
21
-141.8354152
0
LINE
8
0
10
146.0314502
20
-180.2025895
11
163.4010078
21
-182.335303
0
LINE
8
0
10
163.4010078
20
-182.335303
11
165.411852
21
-165.9582915
0
LINE
8
0
10
165.411852
20
-165.9582915
11
148.0422944
21
-163.825578
0
LINE
8
0
10
148.0422944
20
-163.825578
11
146.0314502
21
-180.2025895
0
LINE
8
0
10
148.1032291
20
-163.329305
11
165.4727867
21
-165.4620185
0
LINE
8
0
10
165.4727867
20
-165.4620185
11
167.4836309
21
-149.085007
0
LINE
8
0
10
167.4836309
20
-149.085007
11
150.1140733
21
-146.9522935
0
LINE
8
0
10
150.1140733
20
-146.9522935
11
148.1032291
21
-163.329305
0
LINE
8
0
10
150.175008
20
-146.4560204
11
167.5445656
21
-148.5887339
0
LINE
8
0
10
167.5445656
20
-148.5887339
11
169.5554098
21
-132.2117224
0
LINE
8
0
10
169.5554098
20
-132.2117224
11
152.1858522
21
-130.0790089
0
LINE
8
0
10
152.1858522
20
-130.0790089
11
150.175008
21
-146.4560204
0
LINE
8
0
10
163.5316728
20
-185.3738762
11
180.9012304
21
-187.5065897
0
LINE
8
0
10
180.9012304
20
-187.5065897
11
182.9120746
21
-171.1295782
0
LINE
8
0
10
182.9120746
20
-171.1295782
11
165.542517
21
-168.9968647
0
LINE
8
0
10
165.542517
20
-168.9968647
11
163.5316728
21
-185.3738762
0
LINE
8
0
10
165.6034517
20
-168.5005916
11
182.9730093
21
-170.6333051
0
LINE
8
0
10
182.9730093
20
-170.6333051
11
184.9838535
21
-154.2562936
0
LINE
8
0
10
184.9838535
20
-154.2562936
11
167.6142959
21
-152.1235801
0
LINE
8
0
10
167.6142959
20
-152.1235801
11
165.6034517
21
-168.5005916
0
LINE
8
0
10
167.6752305
20
-151.6273071
11
185.0447881
21
-153.7600206
0
LINE
8
0
10
185.0447881
20
-153.7600206
11
187.0556323
21
-137.3830091
0
LINE
8
0
10
187.0556323
20
-137.3830091
11
169.6860747
21
-135.2502956
0
LINE
8
0
10
169.6860747
20
-135.2502956
11
167.6752305
21
-151.6273071
0
LINE
8
0
10
161.7461073
20
-205.662743
11
178.4814406
21
-210.7792479
0
LINE
8
0
10
178.4814406
20
-210.7792479
11
183.3055737
21
-195.0002194
0
LINE
8
0
10
183.3055737
20
-195.0002194
11
166.5702404
21
-189.8837145
0
LINE
8
0
10
166.5702404
20
-189.8837145
11
161.7461073
21
-205.662743
0
LINE
8
0
10
179.0950612
20
-211.1309098
11
195.3207786
21
-217.6865252
0
LINE
8
0
10
195.3207786
20
-217.6865252
11
201.5017874
21
-202.3879916
0
LINE
8
0
10
201.5017874
20
-202.3879916
11
185.27607
21
-195.8323762
0
LINE
8
0
10
185.27607
20
-195.8323762
11
179.0950612
21
-211.1309098
0
LINE
8
0
10
334.0836544
20
-185.9484344
11
350.9873564
21
-190.4777677
0
LINE
8
0
10
350.9873564
20
-190.4777677
11
355.2578706
21
-174.5399916
0
LINE
8
0
10
355.2578706
20
-174.5399916
11
338.3541686
21
-170.0106583
0
LINE
8
0
10
338.3541686
20
-170.0106583
11
334.0836544
21
-185.9484344
0
LINE
8
0
10
338.4835781
20
-169.5276954
11
355.3872801
21
-174.0570287
0
LINE
8
0
10
355.3872801
20
-174.0570287
11
359.6577943
21
-158.1192526
0
LINE
8
0
10
359.6577943
20
-158.1192526
11
342.7540923
21
-153.5899193
0
LINE
8
0
10
342.7540923
20
-153.5899193
11
338.4835781
21
-169.5276954
0
LINE
8
0
10
355.870243
20
-174.1864382
11
372.773945
21
-178.7157715
0
LINE
8
0
10
372.773945
20
-178.7157715
11
377.0444592
21
-162.7779954
0
LINE
8
0
10
377.0444592
20
-162.7779954
11
360.1407572
21
-158.2486621
0
LINE
8
0
10
360.1407572
20
-158.2486621
11
355.870243
21
-174.1864382
0
LINE
8
0
10
316.3033894
20
-182.7690438
11
333.7367966
21
-184.2942693
0
LINE
8
0
10
333.7367966
20
-184.2942693
11
335.1748664
21
-167.8570568
0
LINE
8
0
10
335.1748664
20
-167.8570568
11
317.7414592
21
-166.3318313
0
LINE
8
0
10
317.7414592
20
-166.3318313
11
316.3033894
21
-182.7690438
0
LINE
8
0
10
317.785037
20
-165.833734
11
335.2184442
21
-167.3589595
0
LINE
8
0
10
335.2184442
20
-167.3589595
11
336.656514
21
-150.921747
0
LINE
8
0
10
336.656514
20
-150.921747
11
319.2231068
21
-149.3965215
0
LINE
8
0
10
319.2231068
20
-149.3965215
11
317.785037
21
-165.833734
0
LINE
8
0
10
319.2666847
20
-148.8984241
11
336.7000919
21
-150.4236496
0
LINE
8
0
10
336.7000919
20
-150.4236496
11
338.1381617
21
-133.9864371
0
LINE
8
0
10
338.1381617
20
-133.9864371
11
320.7047545
21
-132.4612116
0
LINE
8
0
10
320.7047545
20
-132.4612116
11
319.2666847
21
-148.8984241
0
LINE
8
0
10
298.7843994
20
-176.1356538
11
316.2817341
21
-175.8302367
0
LINE
8
0
10
316.2817341
20
-175.8302367
11
315.9937694
21
-159.3327498
0
LINE
8
0
10
315.9937694
20
-159.3327498
11
298.4964347
21
-159.6381669
0
LINE
8
0
10
298.4964347
20
-159.6381669
11
298.7843994
21
-176.1356538
0
LINE
8
0
10
298.4877086
20
-159.138243
11
315.9850433
21
-158.8328259
0
LINE
8
0
10
315.9850433
20
-158.8328259
11
315.6970786
21
-142.335339
0
LINE
8
0
10
315.6970786
20
-142.335339
11
298.1997439
21
-142.6407561
0
LINE
8
0
10
298.1997439
20
-142.6407561
11
298.4877086
21
-159.138243
0
LINE
8
0
10
298.1910177
20
-142.1408323
11
315.6883524
21
-141.8354152
0
LINE
8
0
10
315.6883524
20
-141.8354152
11
315.4003877
21
-125.3379283
0
LINE
8
0
10
315.4003877
20
-125.3379283
11
297.903053
21
-125.6433454
0
LINE
8
0
10
297.903053
20
-125.6433454
11
298.1910177
21
-142.1408323
0
LINE
8
0
10
281.329855
20
-182.335303
11
298.6994126
21
-180.2025895
0
LINE
8
0
10
298.6994126
20
-180.2025895
11
296.6885684
21
-163.825578
0
LINE
8
0
10
296.6885684
20
-163.825578
11
279.3190108
21
-165.9582915
0
LINE
8
0
10
279.3190108
20
-165.9582915
11
281.329855
21
-182.335303
0
LINE
8
0
10
279.2580761
20
-165.4620185
11
296.6276337
21
-163.329305
0
LINE
8
0
10
296.6276337
20
-163.329305
11
294.6167895
21
-146.9522935
0
LINE
8
0
10
294.6167895
20
-146.9522935
11
277.2472319
21
-149.085007
0
LINE
8
0
10
277.2472319
20
-149.085007
11
279.2580761
21
-165.4620185
0
LINE
8
0
10
277.1862972
20
-148.5887339
11
294.5558548
21
-146.4560204
0
LINE
8
0
10
294.5558548
20
-146.4560204
11
292.5450106
21
-130.0790089
0
LINE
8
0
10
292.5450106
20
-130.0790089
11
275.175453
21
-132.2117224
0
LINE
8
0
10
275.175453
20
-132.2117224
11
277.1862972
21
-148.5887339
0
LINE
8
0
10
263.8296324
20
-187.5065897
11
281.19919
21
-185.3738762
0
LINE
8
0
10
281.19919
20
-185.3738762
11
279.1883458
21
-168.9968647
0
LINE
8
0
10
279.1883458
20
-168.9968647
11
261.8187882
21
-171.1295782
0
LINE
8
0
10
261.8187882
20
-171.1295782
11
263.8296324
21
-187.5065897
0
LINE
8
0
10
261.7578535
20
-170.6333051
11
279.1274111
21
-168.5005916
0
LINE
8
0
10
279.1274111
20
-168.5005916
11
277.1165669
21
-152.1235801
0
LINE
8
0
10
277.1165669
20
-152.1235801
11
259.7470093
21
-154.2562936
0
LINE
8
0
10
259.7470093
20
-154.2562936
11
261.7578535
21
-170.6333051
0
LINE
8
0
10
259.6860747
20
-153.7600206
11
277.0556323
21
-151.6273071
0
LINE
8
0
10
277.0556323
20
-151.6273071
11
275.0447881
21
-135.2502956
0
LINE
8
0
10
275.0447881
20
-135.2502956
11
257.6752305
21
-137.3830091
0
LINE
8
0
10
257.6752305
20
-137.3830091
11
259.6860747
21
-153.7600206
0
LINE
8
0
10
266.2494222
20
-210.7792479
11
282.9847555
21
-205.662743
0
LINE
8
0
10
282.9847555
20
-205.662743
11
278.1606224
21
-189.8837145
0
LINE
8
0
10
278.1606224
20
-189.8837145
11
261.4252891
21
-195.0002194
0
LINE
8
0
10
261.4252891
20
-195.0002194
11
266.2494222
21
-210.7792479
0
LINE
8
0
10
249.4100842
20
-217.6865252
11
265.6358016
21
-211.1309098
0
LINE
8
0
10
265.6358016
20
-211.1309098
11
259.4547928
21
-195.8323762
0
LINE
8
0
10
259.4547928
20
-195.8323762
11
243.2290754
21
-202.3879916
0
LINE
8
0
10
243.2290754
20
-202.3879916
11
249.4100842
21
-217.6865252
0
ENDSEC
0
EOF