0
SECTION
2
HEADER
9
$INSUNITS
70
4
0
ENDSEC
0
SECTION
2
TABLES
0
TABLE
2
LTYPE
0
LTYPE
72
65
70
64
2
CONTINUOUS
3
______
73
0
40
0
0
ENDTAB
0
TABLE
2
LAYER
0
ENDTAB
0
ENDSEC
0
SECTION
2
ENTITIES
0
LINE
8
0
10
92.1525162
20
-193.2334437
11
113.4028844
21
-187.5394247
0
LINE
8
0
10
113.4028844
20
-187.5394247
11
113.089416
21
-186.3695446
0
LINE
8
0
10
87.7525925
20
-176.8127047
11
92.1525162
21
-193.2334437
0
LINE
8
0
10
106.8942318
20
-163.2488025
11
103.5677607
21
-150.8342433
0
LINE
8
0
10
64.9307276
20
-161.1870051
11
103.5677607
21
-150.8342433
0
LINE
8
0
10
70.3659276
20
-181.4714475
11
87.7525925
21
-176.8127047
0
LINE
8
0
10
64.9307276
20
-161.1870051
11
70.3659276
21
-181.4714475
0
LINE
8
0
10
113.089416
20
-186.3695446
11
130.8650119
21
-184.8143815
0
LINE
8
0
10
130.8650119
20
-184.8143815
11
130.2786745
21
-178.1125143
0
LINE
8
0
10
104.1551626
20
-131.9410994
11
106.8942318
21
-163.2488025
0
LINE
8
0
10
126.8441737
20
-138.855991
11
126.071446
21
-130.0236731
0
LINE
8
0
10
126.071446
20
-130.0236731
11
104.1551626
21
-131.9410994
0
LINE
8
0
10
130.2786745
20
-178.1125143
11
143.9917919
21
-178.3518777
0
LINE
8
0
10
148.8485603
20
-138.7966742
11
149.116735
21
-123.432956
0
LINE
8
0
10
149.116735
20
-123.432956
11
127.1200857
21
-123.049003
0
LINE
8
0
10
127.1200857
20
-123.049003
11
126.8441737
21
-138.855991
0
LINE
8
0
10
143.5240153
20
-182.1616123
11
161.3898459
21
-184.3552605
0
LINE
8
0
10
143.9917919
20
-178.3518777
11
143.5240153
21
-182.1616123
0
LINE
8
0
10
171.6972367
20
-133.2303381
11
172.0628447
21
-130.2526996
0
LINE
8
0
10
172.0628447
20
-130.2526996
11
150.2268293
21
-127.571574
0
LINE
8
0
10
150.2268293
20
-127.571574
11
148.8485603
21
-138.7966742
0
LINE
8
0
10
161.0242379
20
-187.332899
11
164.8535481
21
-187.8030792
0
LINE
8
0
10
169.2101129
20
-188.3379981
11
182.8602533
21
-190.0140246
0
LINE
8
0
10
182.8602533
20
-190.0140246
11
189.5630672
21
-135.4239863
0
LINE
8
0
10
161.3898459
20
-184.3552605
11
161.0242379
21
-187.332899
0
LINE
8
0
10
189.5630672
20
-135.4239863
11
171.6972367
21
-133.2303381
0
LINE
8
0
10
158.9365853
20
-207.1565924
11
176.6742398
21
-212.5795376
0
LINE
8
0
10
186.0502524
20
-193.718463
11
186.1150957
21
-193.50637
0
LINE
8
0
10
186.1150957
20
-193.50637
11
169.2101129
21
-188.3379981
0
LINE
8
0
10
164.8535481
20
-187.8030792
11
158.9365853
21
-207.1565924
0
LINE
8
0
10
176.6742398
20
-212.5795376
11
196.5640775
21
-220.6155537
0
LINE
8
0
10
196.5640775
20
-220.6155537
11
204.4308159
21
-201.1446928
0
LINE
8
0
10
204.4308159
20
-201.1446928
11
186.0502524
21
-193.718463
0
LINE
8
0
10
331.3279784
20
-187.5394247
11
352.5783466
21
-193.2334437
0
LINE
8
0
10
352.5783466
20
-193.2334437
11
356.9782703
21
-176.8127047
0
LINE
8
0
10
331.6414468
20
-186.3695446
11
331.3279784
21
-187.5394247
0
LINE
8
0
10
341.1631021
20
-150.8342433
11
379.8001352
21
-161.1870051
0
LINE
8
0
10
341.1631021
20
-150.8342433
11
337.836631
21
-163.2488025
0
LINE
8
0
10
356.9782703
20
-176.8127047
11
374.3649352
21
-181.4714475
0
LINE
8
0
10
374.3649352
20
-181.4714475
11
379.8001352
21
-161.1870051
0
LINE
8
0
10
313.8658509
20
-184.8143815
11
331.6414468
21
-186.3695446
0
LINE
8
0
10
314.4521883
20
-178.1125143
11
313.8658509
21
-184.8143815
0
LINE
8
0
10
337.836631
20
-163.2488025
11
340.5757002
21
-131.9410994
0
LINE
8
0
10
340.5757002
20
-131.9410994
11
318.6594168
21
-130.0236731
0
LINE
8
0
10
318.6594168
20
-130.0236731
11
317.8866891
21
-138.855991
0
LINE
8
0
10
300.7390709
20
-178.3518777
11
314.4521883
21
-178.1125143
0
LINE
8
0
10
317.8866891
20
-138.855991
11
317.6107771
21
-123.049003
0
LINE
8
0
10
317.6107771
20
-123.049003
11
295.6141278
21
-123.432956
0
LINE
8
0
10
295.6141278
20
-123.432956
11
295.8823025
21
-138.7966742
0
LINE
8
0
10
283.3410169
20
-184.3552605
11
301.2068475
21
-182.1616123
0
LINE
8
0
10
301.2068475
20
-182.1616123
11
300.7390709
21
-178.3518777
0
LINE
8
0
10
295.8823025
20
-138.7966742
11
294.5040335
21
-127.571574
0
LINE
8
0
10
294.5040335
20
-127.571574
11
272.6680181
21
-130.2526996
0
LINE
8
0
10
272.6680181
20
-130.2526996
11
273.0336261
21
-133.2303381
0
LINE
8
0
10
261.8706095
20
-190.0140246
11
275.5207499
21
-188.3379981
0
LINE
8
0
10
279.8773147
20
-187.8030792
11
283.7066249
21
-187.332899
0
LINE
8
0
10
283.7066249
20
-187.332899
11
283.3410169
21
-184.3552605
0
LINE
8
0
10
255.1677956
20
-135.4239863
11
261.8706095
21
-190.0140246
0
LINE
8
0
10
273.0336261
20
-133.2303381
11
255.1677956
21
-135.4239863
0
LINE
8
0
10
268.056623
20
-212.5795376
11
285.7942775
21
-207.1565924
0
LINE
8
0
10
285.7942775
20
-207.1565924
11
279.8773147
21
-187.8030792
0
LINE
8
0
10
275.5207499
20
-188.3379981
11
258.6157671
21
-193.50637
0
LINE
8
0
10
258.6157671
20
-193.50637
11
258.6806104
21
-193.718463
0
LINE
8
0
10
248.1667853
20
-220.6155537
11
268.056623
21
-212.5795376
0
LINE
8
0
10
258.6806104
20
-193.718463
11
240.3000469
21
-201.1446928
0
LINE
8
0
10
240.3000469
20
-201.1446928
11
248.1667853
21
-220.6155537
0
ENDSEC
0
EOF