0
SECTION
2
HEADER
9
$INSUNITS
70
4
0
ENDSEC
0
SECTION
2
TABLES
0
TABLE
2
LTYPE
0
LTYPE
72
65
70
64
2
CONTINUOUS
3
______
73
0
40
0
0
ENDTAB
0
TABLE
2
LAYER
0
ENDTAB
0
ENDSEC
0
SECTION
2
ENTITIES
0
LINE
8
0
10
376.2967869
20
-181.9890854
11
381.7319868
21
-161.7046432
0
LINE
8
0
10
380.3177731
20
-159.2551535
11
357.1611384
21
-153.0503519
0
LINE
8
0
10
357.110159
20
-153.0359658
11
342.7179547
21
-148.7680097
0
LINE
8
0
10
341.2941827
20
-146.6762327
11
342.5680896
21
-132.1154108
0
LINE
8
0
10
324.3290349
20
-128.5120607
11
340.7500116
21
-129.94871
0
LINE
8
0
10
322.7912685
20
-127.5534941
11
320.0684055
21
-123.0442559
0
LINE
8
0
10
318.6996881
20
-122.1077732
11
313.312165
21
-121.1689023
0
LINE
8
0
10
312.8379118
20
-121.1434956
11
300.1939256
21
-121.9727771
0
LINE
8
0
10
299.9862514
20
-121.9973545
11
293.6914099
21
-123.0785719
0
LINE
8
0
10
293.5258789
20
-123.1142777
11
289.5694755
21
-124.1447546
0
LINE
8
0
10
289.5308215
20
-124.1552367
11
276.9771694
21
-127.694825
0
LINE
8
0
10
276.8068366
20
-127.7512136
11
268.2624711
21
-131.0119394
0
LINE
8
0
10
267.9974809
20
-131.0925377
11
265.8635931
21
-131.5831005
0
LINE
8
0
10
265.6973599
20
-131.6139829
11
252.9275356
21
-133.431786
0
LINE
8
0
10
252.8894128
20
-133.4368394
11
234.2486297
21
-135.7256397
0
LINE
8
0
10
232.507276
20
-137.9544706
11
239.1413597
21
-191.9847464
0
LINE
8
0
10
239.120558
20
-192.604733
11
237.8180634
21
-199.4047106
0
LINE
8
0
10
237.9693948
20
-200.625458
11
247.4652435
21
-221.0110113
0
LINE
8
0
10
250.0274158
20
-222.0208796
11
271.0754816
21
-213.5169091
0
LINE
8
0
10
271.2646294
20
-213.4512959
11
286.3471916
21
-209.0516583
0
LINE
8
0
10
287.6998644
20
-206.5473548
11
283.3500742
21
-192.3086289
0
LINE
8
0
10
284.3471693
20
-189.9462181
11
285.7521802
21
-189.2226947
0
LINE
8
0
10
285.7521802
20
-189.2226947
11
303.3007327
21
-183.9435617
0
LINE
8
0
10
303.5749831
20
-183.8816939
11
309.9146492
21
-182.9136159
0
LINE
8
0
10
312.1020616
20
-184.2237219
11
312.5886266
21
-185.599217
0
LINE
8
0
10
314.1987874
20
-186.913196
11
328.7558228
21
-188.9365879
0
LINE
8
0
10
328.998113
20
-188.9856914
11
352.0607086
21
-195.1652953
0
LINE
8
0
10
354.5101983
20
-193.7510816
11
357.8748458
21
-181.1940462
0
LINE
8
0
10
360.3243355
20
-179.7798325
11
373.8472972
21
-183.4032991
0
ARC
8
0
10
379.8001351
20
-161.1870052
40
2
50
345.0000021
51
75.0000021
0
ARC
8
0
10
357.6787764
20
-151.1185002
40
2
50
253.4824695
51
255.0000021
0
ARC
8
0
10
343.2865721
20
-146.8505441
40
2
50
175.0000024
51
253.4824695
0
ARC
8
0
10
340.5757002
20
-131.9410994
40
2
50
355.0000024
51
85.0000024
0
ARC
8
0
10
324.5033463
20
-126.5196713
40
2
50
211.1253015
51
265.0000024
0
ARC
8
0
10
318.3563277
20
-124.0780787
40
2
50
31.1253015
51
80.1144758
0
ARC
8
0
10
312.9688046
20
-123.1392078
40
2
50
80.1144758
51
93.7524845
0
ARC
8
0
10
300.3248184
20
-123.9684893
40
2
50
93.7524845
51
99.7461628
0
ARC
8
0
10
294.0299769
20
-125.0497067
40
2
50
99.7461628
51
104.5987943
0
ARC
8
0
10
290.0735735
20
-126.0801835
40
2
50
104.5987943
51
105.7461634
0
ARC
8
0
10
277.5199214
20
-129.6197718
40
2
50
105.7461634
51
110.888003
0
ARC
8
0
10
267.5493863
20
-129.1433811
40
2
50
282.9468619
51
290.888003
0
ARC
8
0
10
265.4154985
20
-129.633944
40
2
50
278.1017051
51
282.9468619
0
ARC
8
0
10
252.6456742
20
-131.4517471
40
2
50
276.9999972
51
278.1017051
0
ARC
8
0
10
234.4923683
20
-137.710732
40
2
50
96.9999972
51
186.9999972
0
ARC
8
0
10
237.1562674
20
-192.228485
40
2
50
349.156677
51
6.9999972
0
ARC
8
0
10
239.782354
20
-199.7809586
40
2
50
169.156677
51
204.9767011
0
ARC
8
0
10
249.2782027
20
-220.1665119
40
2
50
204.9767011
51
291.9999994
0
ARC
8
0
10
271.8246948
20
-215.3712768
40
2
50
106.2621557
51
111.9999994
0
ARC
8
0
10
285.7871262
20
-207.1316774
40
2
50
286.2621557
51
16.9873936
0
ARC
8
0
10
285.2628123
20
-191.7243064
40
2
50
117.2466229
51
196.9873936
0
ARC
8
0
10
303.8768869
20
-185.8587761
40
2
50
98.6820947
51
106.7428701
0
ARC
8
0
10
310.216553
20
-184.8906981
40
2
50
19.4806265
51
98.6820947
0
ARC
8
0
10
314.4741352
20
-184.9322408
40
2
50
199.4806265
51
262.0867328
0
ARC
8
0
10
328.480475
20
-190.9175432
40
2
50
75.0000021
51
82.0867328
0
ARC
8
0
10
352.5783466
20
-193.2334436
40
2
50
255.0000021
51
345.0000021
0
ARC
8
0
10
359.8066975
20
-181.7116842
40
2
50
75.0000021
51
165.0000021
0
ARC
8
0
10
374.3649352
20
-181.4714474
40
2
50
255.0000021
51
345.0000021
0
ENDSEC
0
EOF