0
SECTION
2
HEADER
9
$INSUNITS
70
4
0
ENDSEC
0
SECTION
2
TABLES
0
TABLE
2
LTYPE
0
LTYPE
72
65
70
64
2
CONTINUOUS
3
______
73
0
40
0
0
ENDTAB
0
TABLE
2
LAYER
0
ENDTAB
0
ENDSEC
0
SECTION
2
ENTITIES
0
LINE
8
0
10
68.4340759
20
-181.9890854
11
62.998876
21
-161.7046432
0
LINE
8
0
10
64.4130897
20
-159.2551535
11
87.5697244
21
-153.0503519
0
LINE
8
0
10
87.6207038
20
-153.0359658
11
102.0129081
21
-148.7680097
0
LINE
8
0
10
103.4366801
20
-146.6762327
11
102.1627732
21
-132.1154108
0
LINE
8
0
10
103.9808512
20
-129.94871
11
120.4018279
21
-128.5120607
0
LINE
8
0
10
121.9395943
20
-127.5534941
11
124.6624573
21
-123.0442559
0
LINE
8
0
10
126.0311747
20
-122.1077732
11
131.4186978
21
-121.1689023
0
LINE
8
0
10
131.892951
20
-121.1434956
11
144.5369372
21
-121.9727771
0
LINE
8
0
10
144.7446114
20
-121.9973545
11
151.0394529
21
-123.0785719
0
LINE
8
0
10
151.2049839
20
-123.1142777
11
155.1613873
21
-124.1447546
0
LINE
8
0
10
155.2000413
20
-124.1552367
11
167.7536934
21
-127.694825
0
LINE
8
0
10
167.9240262
20
-127.7512136
11
176.4683917
21
-131.0119394
0
LINE
8
0
10
176.7333819
20
-131.0925377
11
178.8672697
21
-131.5831005
0
LINE
8
0
10
179.0335029
20
-131.6139829
11
191.8033272
21
-133.431786
0
LINE
8
0
10
191.84145
20
-133.4368394
11
210.4822331
21
-135.7256397
0
LINE
8
0
10
212.2235868
20
-137.9544706
11
205.5895031
21
-191.9847464
0
LINE
8
0
10
205.6103048
20
-192.604733
11
206.9127994
21
-199.4047106
0
LINE
8
0
10
206.761468
20
-200.625458
11
197.2656193
21
-221.0110113
0
LINE
8
0
10
194.703447
20
-222.0208796
11
173.6553812
21
-213.5169091
0
LINE
8
0
10
173.4662334
20
-213.4512959
11
158.3836712
21
-209.0516583
0
LINE
8
0
10
157.0309984
20
-206.5473548
11
161.3807886
21
-192.3086289
0
LINE
8
0
10
160.3836935
20
-189.9462181
11
158.9786826
21
-189.2226947
0
LINE
8
0
10
158.9786826
20
-189.2226947
11
141.4301301
21
-183.9435617
0
LINE
8
0
10
141.1558797
20
-183.8816939
11
134.8162136
21
-182.9136159
0
LINE
8
0
10
132.6288012
20
-184.2237219
11
132.1422362
21
-185.599217
0
LINE
8
0
10
130.5320754
20
-186.913196
11
115.97504
21
-188.9365879
0
LINE
8
0
10
115.7327498
20
-188.9856914
11
92.6701542
21
-195.1652953
0
LINE
8
0
10
90.2206645
20
-193.7510816
11
86.856017
21
-181.1940462
0
LINE
8
0
10
84.4065273
20
-179.7798325
11
70.8835656
21
-183.4032991
0
ARC
8
0
10
64.9307277
20
-161.1870052
40
2
50
104.9999979
51
194.9999979
0
ARC
8
0
10
87.0520864
20
-151.1185002
40
2
50
284.9999979
51
286.5175305
0
ARC
8
0
10
101.4442907
20
-146.8505441
40
2
50
286.5175305
51
4.9999976
0
ARC
8
0
10
104.1551626
20
-131.9410994
40
2
50
94.9999976
51
184.9999976
0
ARC
8
0
10
120.2275165
20
-126.5196713
40
2
50
274.9999976
51
328.8746985
0
ARC
8
0
10
126.3745351
20
-124.0780787
40
2
50
99.8855242
51
148.8746985
0
ARC
8
0
10
131.7620582
20
-123.1392078
40
2
50
86.2475155
51
99.8855242
0
ARC
8
0
10
144.4060444
20
-123.9684893
40
2
50
80.2538372
51
86.2475155
0
ARC
8
0
10
150.7008859
20
-125.0497067
40
2
50
75.4012057
51
80.2538372
0
ARC
8
0
10
154.6572893
20
-126.0801835
40
2
50
74.2538366
51
75.4012057
0
ARC
8
0
10
167.2109414
20
-129.6197718
40
2
50
69.111997
51
74.2538366
0
ARC
8
0
10
177.1814765
20
-129.1433811
40
2
50
249.111997
51
257.0531381
0
ARC
8
0
10
179.3153643
20
-129.633944
40
2
50
257.0531381
51
261.8982949
0
ARC
8
0
10
192.0851886
20
-131.4517471
40
2
50
261.8982949
51
263.0000028
0
ARC
8
0
10
210.2384945
20
-137.710732
40
2
50
353.0000028
51
83.0000028
0
ARC
8
0
10
207.5745954
20
-192.228485
40
2
50
173.0000028
51
190.843323
0
ARC
8
0
10
204.9485088
20
-199.7809586
40
2
50
335.0232989
51
10.843323
0
ARC
8
0
10
195.4526601
20
-220.1665119
40
2
50
248.0000006
51
335.0232989
0
ARC
8
0
10
172.906168
20
-215.3712768
40
2
50
68.0000006
51
73.7378443
0
ARC
8
0
10
158.9437366
20
-207.1316774
40
2
50
163.0126064
51
253.7378443
0
ARC
8
0
10
159.4680505
20
-191.7243064
40
2
50
343.0126064
51
62.7533771
0
ARC
8
0
10
140.8539759
20
-185.8587761
40
2
50
73.2571299
51
81.3179053
0
ARC
8
0
10
134.5143098
20
-184.8906981
40
2
50
81.3179053
51
160.5193735
0
ARC
8
0
10
130.2567276
20
-184.9322408
40
2
50
277.9132672
51
340.5193735
0
ARC
8
0
10
116.2503878
20
-190.9175432
40
2
50
97.9132672
51
104.9999979
0
ARC
8
0
10
92.1525162
20
-193.2334436
40
2
50
194.9999979
51
284.9999979
0
ARC
8
0
10
84.9241653
20
-181.7116842
40
2
50
14.9999979
51
104.9999979
0
ARC
8
0
10
70.3659276
20
-181.4714474
40
2
50
194.9999979
51
284.9999979
0
ENDSEC
0
EOF